<svg width="120" height="125" viewBox="0 0 120 125" fill="none" xmlns="http://www.w3.org/2000/svg">
<path d="M0 0H120V115.083C120 120.56 115.56 125 110.083 125H9.91666C4.43984 125 0 120.56 0 115.083V0Z" fill="white"/>
<path d="M59.352 21.5775C59.352 21.9575 59.2393 22.3289 59.0282 22.6449C58.8171 22.9608 58.517 23.2071 58.166 23.3525C57.8149 23.4979 57.4286 23.5359 57.0559 23.4618C56.6833 23.3877 56.3409 23.2047 56.0722 22.936C55.8036 22.6673 55.6206 22.325 55.5464 21.9523C55.4723 21.5796 55.5104 21.1933 55.6558 20.8423C55.8012 20.4912 56.0474 20.1911 56.3634 19.98C56.6793 19.7689 57.0508 19.6562 57.4308 19.6562C57.9403 19.6562 58.429 19.8587 58.7893 20.219C59.1496 20.5793 59.352 21.0679 59.352 21.5775Z" fill="#003D73"/>
<path d="M76.4164 55.1802C76.417 56.6399 75.9343 58.0587 75.0437 59.2152C74.1531 60.3717 72.9046 61.2008 71.4933 61.5731L68.4241 48.7248C69.3872 48.5169 70.3846 48.5272 71.3432 48.7551C72.3018 48.9829 73.1972 49.4225 73.9637 50.0416C74.7301 50.6607 75.3483 51.4436 75.7727 52.3328C76.1972 53.222 76.4171 54.1949 76.4164 55.1802Z" fill="#003D73"/>
<path d="M86.585 69.5412C86.561 69.2626 86.5466 68.9793 86.5466 68.6959C86.5464 68.3524 86.5656 68.0093 86.6042 67.668C86.8049 65.7113 87.5898 63.8603 88.8569 62.3558C88.977 62.2069 89.7455 61.3952 90.0192 61.179C93.8138 57.3883 96.0902 52.3402 96.4191 46.9866C96.7479 41.6331 95.1066 36.3443 91.8045 32.1176C88.5025 27.891 83.768 25.0186 78.494 24.0423C73.22 23.066 67.771 24.0532 63.1747 26.8177L65.9461 38.3932C67.8392 37.6075 69.8802 37.242 71.9283 37.3217C73.9764 37.4014 75.9828 37.9245 77.8091 38.8549C79.6353 39.7853 81.238 41.1009 82.5066 42.7108C83.7751 44.3207 84.6792 46.1867 85.1566 48.1799C85.634 50.1732 85.6732 52.2463 85.2717 54.2562C84.8701 56.2661 84.0372 58.165 82.8306 59.8218C81.6239 61.4785 80.0722 62.8538 78.2824 63.8527C76.4927 64.8516 74.5075 65.4503 72.4639 65.6075L72.9442 67.5575L74.0441 72.1445V72.1973C74.0814 72.3226 74.1056 72.4513 74.1162 72.5816C73.2372 72.6632 72.3438 72.7113 71.4409 72.7113C64.0042 72.7129 56.8678 69.7777 51.5841 64.5445C46.3005 59.3112 43.2971 52.2032 43.2275 44.7669C43.5489 44.7542 43.8696 44.7253 44.1881 44.6804C49.1785 43.8159 54.0681 39.8053 55.1248 34.4402C55.6114 32.4813 55.6302 30.4354 55.1796 28.4678C54.729 26.5003 53.8217 24.6664 52.5311 23.1145V17.7975H66.0662C67.0006 17.8019 67.9266 17.6215 68.791 17.2665C69.6554 16.9116 70.441 16.3892 71.1026 15.7293C71.7642 15.0695 72.2888 14.2853 72.6461 13.4219C73.0033 12.5585 73.1863 11.6329 73.1844 10.6985C73.1433 8.92009 72.4229 7.22488 71.1709 5.96109C69.919 4.6973 68.2306 3.96088 66.4527 3.90309C64.6747 3.8453 62.9421 4.47053 61.6107 5.65035C60.2793 6.83017 59.4503 8.47502 59.2938 10.247C58.2926 8.94069 56.8134 8.0856 55.1817 7.86987C53.55 7.65414 51.8994 8.09544 50.593 9.0967C49.2867 10.0979 48.4316 11.5771 48.2159 13.2089C48.0001 14.8406 48.4414 16.4912 49.4427 17.7975H42.0507L50.5714 24.0415L46.5945 27.5574C46.5287 27.6096 46.4662 27.6658 46.4071 27.7255L46.3351 27.7831C45.8022 28.3023 45.4362 28.9685 45.2837 29.6966C45.1313 30.4248 45.1994 31.1819 45.4793 31.8712C45.7593 32.5604 46.2383 33.1506 46.8553 33.5663C47.4723 33.982 48.1992 34.2043 48.9432 34.2049C49.4643 34.203 49.9794 34.0935 50.4562 33.8831C50.3892 35.7852 49.6399 37.5997 48.3452 38.9949C47.0506 40.3901 45.2971 41.2728 43.4052 41.4816C43.1501 41.5104 42.8935 41.5249 42.6367 41.5248H42.5407C41.501 41.5254 40.4714 41.3211 39.5108 40.9235C38.5501 40.526 37.6773 39.9429 36.9421 39.2078C36.207 38.4726 35.624 37.5998 35.2264 36.6392C34.8288 35.6785 34.6245 34.6489 34.6252 33.6093C34.6233 33.1083 34.6683 32.6082 34.7596 32.1155C33.4125 33.8661 32.3358 35.809 31.5656 37.8792L31.3927 38.3595C30.2725 41.5813 29.9112 45.0181 30.3367 48.4023C30.7623 51.7866 31.9633 55.0269 33.8462 57.871C35.7291 60.7151 38.2431 63.0862 41.1924 64.7997C44.1417 66.5131 47.4467 67.5226 50.85 67.7497C53.3973 69.8887 56.2728 71.603 59.3659 72.8265L56.3736 82.0581C56.2728 82.29 56.1191 82.4951 55.9247 82.6569C55.7304 82.8188 55.5008 82.9328 55.2544 82.9899L49.0104 84.1378C48.7763 84.1786 48.5641 84.3006 48.4112 84.4825C48.2583 84.6644 48.1746 84.8944 48.1747 85.1321V86.1407H64.7598L64.5724 84.9015C64.5441 84.7142 64.4645 84.5383 64.3424 84.3934C64.2203 84.2484 64.0606 84.14 63.8808 84.0802L60.7588 83.0715C60.5552 83.0064 60.3776 82.8782 60.2515 82.7056C60.1255 82.5329 60.0575 82.3247 60.0575 82.1109L62.4207 73.8592C64.9045 74.5536 67.4649 74.9376 70.0432 75.0023H70.8117C71.1671 75.0023 71.5225 75.0023 71.8635 75.0023L72.5648 81.9908C72.5732 82.2856 72.4834 82.5749 72.3095 82.8131C72.1356 83.0513 71.8875 83.225 71.6042 83.3069L68.242 84.1186C67.4879 84.3396 67.2334 85.1561 67.2334 86.1647H83.8376C83.8376 85.2281 83.8857 84.3011 83.074 84.1714L77.2238 83.2925C76.7809 83.2664 76.3655 83.0687 76.066 82.7414C75.7664 82.4141 75.6063 81.9829 75.6196 81.5394L75.0048 74.9255C75.6825 75.9513 76.7044 76.7013 77.8862 77.0403C79.068 77.3794 80.332 77.2852 81.4505 76.7747C82.8255 77.8047 84.4884 78.3785 86.206 78.4155C87.9236 78.4526 89.6098 77.951 91.0279 76.9812C89.7763 76.1617 88.7275 75.068 87.9611 73.7832C87.1947 72.4983 86.7307 71.056 86.6042 69.5652L86.585 69.5412ZM33.6885 45.6266C33.7113 44.4645 33.8043 43.3049 33.9671 42.154C35.6547 43.4176 37.6218 44.2562 39.702 44.5988C39.7886 52.3375 42.8119 59.7543 48.1603 65.3481C43.9666 64.0326 40.3019 61.4136 37.6992 57.8719C35.0965 54.3302 33.6915 50.0506 33.6885 45.6554" fill="#003D73"/>
<path d="M30.9722 12.1787C29.0324 12.1787 27.1361 12.7539 25.5232 13.8316C23.9103 14.9094 22.6532 16.4411 21.9109 18.2333C21.1686 20.0255 20.9743 21.9975 21.3528 23.9001C21.7312 25.8026 22.6653 27.5502 24.037 28.9219C25.4086 30.2935 27.1562 31.2276 29.0588 31.6061C30.9613 31.9845 32.9334 31.7903 34.7256 31.048C36.5177 30.3056 38.0495 29.0485 39.1272 27.4356C40.2049 25.8227 40.7801 23.9265 40.7801 21.9866C40.7808 20.6985 40.5275 19.4228 40.0348 18.2326C39.5422 17.0423 38.8198 15.9609 37.9089 15.05C36.998 14.1391 35.9165 13.4167 34.7263 12.924C33.5361 12.4313 32.2604 12.1781 30.9722 12.1787ZM39.1711 20.9348L39.3248 21.6408C39.3648 21.8249 39.3301 22.0173 39.2283 22.1758C39.1266 22.3343 38.9661 22.4459 38.7821 22.4861L38.6284 21.7945C38.5883 21.6098 38.6228 21.4168 38.7245 21.2576C38.8262 21.0983 38.9867 20.9857 39.1711 20.9444V20.9348ZM38.8397 23.5188C38.7903 23.5802 38.7283 23.6302 38.658 23.6656C38.5877 23.7011 38.5106 23.721 38.4319 23.7242C38.3532 23.7274 38.2747 23.7137 38.2017 23.6841C38.1288 23.6545 38.063 23.6096 38.0088 23.5524L37.0481 22.4813C37.3699 22.1932 37.6821 22.2268 37.8743 22.4429L38.8397 23.5188ZM30.6264 14.9789L31.3997 14.196C31.4462 14.2317 31.4846 14.2768 31.5126 14.3283C31.5405 14.3798 31.5572 14.4367 31.5618 14.4951C31.5663 14.5535 31.5585 14.6123 31.5388 14.6675C31.5192 14.7227 31.4882 14.7732 31.4477 14.8156L30.66 15.5985C30.6129 15.5633 30.5738 15.5184 30.5455 15.4668C30.5171 15.4153 30.5001 15.3583 30.4955 15.2996C30.491 15.2409 30.499 15.182 30.5191 15.1267C30.5392 15.0714 30.5709 15.021 30.612 14.9789H30.6264ZM28.4554 27.8128C28.4554 28.0102 28.377 28.1996 28.2374 28.3392C28.0977 28.4788 27.9084 28.5573 27.7109 28.5573V27.8128C27.7109 27.6153 27.7894 27.426 27.929 27.2864C28.0686 27.1467 28.258 27.0683 28.4554 27.0683V27.8128ZM28.3113 24.3978V26.1845L27.3123 27.1836V28.2643H26.3517L25.391 27.3037V24.7964H24.2767C23.72 24.7964 23.1862 24.5753 22.7925 24.1817C22.3989 23.788 22.1778 23.2542 22.1778 22.6975V22.0251C22.1778 21.8403 22.2511 21.6632 22.3817 21.5326C22.5124 21.402 22.6895 21.3286 22.8742 21.3286H26.5246L28.3353 23.7302H28.9693C28.97 23.817 28.9534 23.9031 28.9206 23.9834C28.8878 24.0638 28.8395 24.1369 28.7783 24.1986C28.7171 24.2602 28.6444 24.3091 28.5642 24.3424C28.4841 24.3758 28.3981 24.393 28.3113 24.393V24.3978ZM35.5544 23.9127V23.3363C35.5556 23.2013 35.6031 23.0707 35.6889 22.9665L35.0453 22.3228H34.1903C34.1238 22.5469 34.0038 22.7515 33.8406 22.9188C33.6775 23.0862 33.476 23.2113 33.2537 23.2835V23.7109C33.2537 23.9025 33.1779 24.0862 33.043 24.2221C32.908 24.358 32.7248 24.4349 32.5332 24.4362L32.0241 22.7071C31.9291 22.7071 31.835 22.6883 31.7473 22.6518C31.6596 22.6153 31.5799 22.5618 31.513 22.4944C31.446 22.427 31.393 22.347 31.3571 22.259C31.3212 22.171 31.303 22.0768 31.3036 21.9818L30.9194 21.7273H30.0789L28.686 23.125L26.9328 20.7907H28.5995C28.6002 20.7171 28.586 20.6442 28.5579 20.5763C28.5298 20.5083 28.4882 20.4467 28.4358 20.3952C28.3833 20.3436 28.3211 20.3032 28.2526 20.2762C28.1842 20.2493 28.1111 20.2364 28.0375 20.2383L26.9328 20.7907H26.2028V19.83C26.2028 19.6364 26.1258 19.4507 25.9889 19.3138C25.852 19.1769 25.6663 19.1 25.4727 19.1H25.1557C25.1557 19.4821 25.0039 19.8486 24.7336 20.1189C24.4634 20.3891 24.0969 20.5409 23.7148 20.5409V19.1H25.1028L24.6754 18.221H24.0173C24.0186 18.0295 24.0956 17.8462 24.2315 17.7113C24.3673 17.5763 24.5511 17.5005 24.7426 17.5005V18.173L25.3478 17.7551L25.7513 17.88L25.8329 17.6638L25.1028 17.3997C25.1001 17.0414 25.2104 16.6914 25.4179 16.3993C25.6254 16.1072 25.9196 15.8879 26.2588 15.7725C26.5981 15.6571 26.965 15.6515 27.3076 15.7565C27.6501 15.8615 27.9509 16.0718 28.1672 16.3574L29.392 15.3007L30.7561 15.781L31.4477 15.6465C31.5707 15.2925 31.801 14.9856 32.1067 14.7686C32.4123 14.5516 32.778 14.4354 33.1528 14.4362V15.3295L35.4103 14.8925L37.1346 16.1653L35.905 16.5591L36.1259 16.7849V16.7513C36.5081 16.7513 36.8746 16.9031 37.1448 17.1733C37.4151 17.4435 37.5669 17.81 37.5669 18.1922H37.5333V18.4371L37.9799 18.8838C38.0444 18.9461 38.0957 19.0207 38.1308 19.1032C38.1658 19.1858 38.1839 19.2745 38.1839 19.3641C38.1839 19.4538 38.1658 19.5425 38.1308 19.625C38.0957 19.7076 38.0444 19.7822 37.9799 19.8444L37.4996 19.3641C37.425 19.2889 37.3694 19.1969 37.3377 19.0958C37.3059 18.9946 37.2989 18.8874 37.3171 18.783H36.9329V19.2633L37.9703 20.2239C37.9699 20.6935 37.8236 21.1513 37.5517 21.5342C37.2798 21.9171 36.8958 22.2061 36.4526 22.3613L37.3507 23.2162C37.3495 23.4077 37.2725 23.591 37.1366 23.726C37.0007 23.8609 36.817 23.9367 36.6255 23.9367L36.1307 23.418C36.1069 23.5532 36.036 23.6756 35.9305 23.7636C35.8249 23.8515 35.6917 23.8992 35.5544 23.8983V23.9127ZM38.2297 26.8233L36.3085 26.7993C36.6783 25.2335 37.9415 24.1961 39.1279 24.4794L38.2297 26.8233Z" fill="#003D73"/>
<path d="M24.6516 100.017H24.08V95.9198H21.6016V100.017H21.03V95.3818H24.6516V100.017Z" fill="red"/>
<path d="M30.8763 95.3818V95.9198H29.4113V100.017H28.8398V95.9198H27.3796V95.3818H30.8763Z" fill="red"/>
<path d="M37.3502 100.017H36.7786V96.2992L34.1417 100.017H33.6038V95.3818H34.1753V99.0946L36.8122 95.3818H37.3502V100.017Z" fill="#003D73"/>
<path d="M40.5244 95.3818H41.096V99.4741H43.4447V95.3818H44.0163V99.4741H44.5878V101.03H44.0163V100.017H40.5244V95.3818Z" fill="#003D73"/>
<path d="M47.3137 95.3818H50.1716V95.9198H47.8853V97.3799H49.6961V97.9179H47.8853V99.4741H50.1716V100.017H47.3137V95.3818Z" fill="#003D73"/>
<path d="M55.1256 99.5708C53.6318 99.5084 52.8057 98.6822 52.8057 97.6015C52.8057 96.5208 53.6318 95.6803 55.1256 95.6371V95.1279H55.6971V95.6371C57.1909 95.6995 58.017 96.5256 58.017 97.6015C58.017 98.6774 57.1909 99.5228 55.6971 99.5708V100.08H55.1256V99.5708ZM55.1256 96.175C53.9824 96.2086 53.3772 96.809 53.3772 97.6159C53.3772 98.4228 53.9824 99.0136 55.1256 99.0569V96.175ZM55.6971 99.0328C56.8403 98.9992 57.4455 98.3988 57.4455 97.5919C57.4455 96.785 56.8403 96.199 55.6971 96.151V99.0328Z" fill="#003D73"/>
<path d="M61.4133 98.744L60.8417 100.017H60.2173L62.3451 95.3818H62.883L65.0204 100.017H64.4296L63.858 98.744H61.4133ZM62.6525 96.1119H62.6188L61.6582 98.2061H63.5795L62.6525 96.1119Z" fill="#003D73"/>
<path d="M68.142 97.0969H69.0305C70.044 97.0969 70.6155 97.6685 70.6155 98.5378C70.6155 99.4072 70.044 99.9787 69.0305 99.9787H67.5896V95.3438H70.3514V95.8817H68.142V97.0969ZM68.142 99.4984H69.0305C69.1569 99.5076 69.2838 99.4906 69.4033 99.4485C69.5228 99.4064 69.6324 99.3401 69.7252 99.2538C69.8179 99.1675 69.8919 99.063 69.9425 98.9469C69.9931 98.8307 70.0192 98.7053 70.0192 98.5786C70.0192 98.4519 69.9931 98.3266 69.9425 98.2104C69.8919 98.0942 69.8179 97.9897 69.7252 97.9034C69.6324 97.8171 69.5228 97.7509 69.4033 97.7088C69.2838 97.6667 69.1569 97.6497 69.0305 97.6588H68.142V99.4984Z" fill="#003D73"/>
<path d="M74.105 100.017H73.5334V95.3818H74.9023C75.9494 95.3818 76.5498 95.9822 76.5498 96.9044C76.5498 97.8266 75.9494 98.427 74.9023 98.427H74.105V100.017ZM74.105 97.8891H74.9023C75.1635 97.8891 75.4139 97.7853 75.5986 97.6007C75.7832 97.416 75.887 97.1656 75.887 96.9044C75.887 96.6433 75.7832 96.3928 75.5986 96.2082C75.4139 96.0235 75.1635 95.9198 74.9023 95.9198H74.105V97.8891Z" fill="#003D73"/>
<path d="M83.2176 100.017H82.646V96.2992L80.0139 100.017H79.4712V95.3818H80.0428V99.0946L82.6797 95.3818H83.2176V100.017Z" fill="#003D73"/>
<path d="M86.9632 97.6009L89.187 95.3818H89.9171L87.6932 97.6009L90.0756 100.017H89.3119L86.9632 97.6345V100.017H86.3916V95.3818H86.9632V97.6009Z" fill="#003D73"/>
<path d="M93.1565 98.744L92.5849 100.017H91.9797L94.1075 95.3818H94.6503L96.778 100.017H96.1728L95.6013 98.744H93.1565ZM94.3957 96.1119H94.3621L93.4014 98.2061H95.3227L94.3957 96.1119Z" fill="#003D73"/>
<path d="M26.1158 112.313C26.6034 112.3 27.0818 112.177 27.5157 111.955C27.9496 111.732 28.328 111.415 28.6231 111.026H28.8824V113.212C28.4609 113.605 27.9651 113.91 27.424 114.109C26.8828 114.308 26.3074 114.396 25.7316 114.369C24.4632 114.329 23.2601 113.798 22.377 112.886C21.4938 111.975 21 110.756 21 109.487C21 108.218 21.4938 106.999 22.377 106.087C23.2601 105.176 24.4632 104.644 25.7316 104.604C28.1716 104.604 29.1994 105.824 29.1994 105.824L28.3445 107.616C28.0677 107.3 27.7241 107.05 27.3386 106.884C26.9531 106.718 26.5354 106.64 26.1158 106.655C25.7348 106.64 25.3546 106.701 24.998 106.836C24.6413 106.971 24.3156 107.177 24.0405 107.441C23.7654 107.705 23.5465 108.022 23.3969 108.373C23.2474 108.723 23.1703 109.101 23.1703 109.482C23.1703 109.863 23.2474 110.241 23.3969 110.592C23.5465 110.942 23.7654 111.259 24.0405 111.523C24.3156 111.787 24.6413 111.993 24.998 112.128C25.3546 112.263 25.7348 112.324 26.1158 112.309" fill="#003D73"/>
<path d="M31.4299 104.796H37.9141V106.852H33.7402V108.461H36.9487V110.512H33.7402V112.121H37.9141V114.176H31.4299V104.796Z" fill="#003D73"/>
<path d="M43.5713 104.796C46.0113 104.796 47.0392 105.824 47.0392 107.303C47.0483 107.727 46.9138 108.142 46.6574 108.481C46.4011 108.819 46.038 109.061 45.627 109.167V109.229C46.1541 109.345 46.6259 109.637 46.9647 110.057C47.3035 110.477 47.489 111 47.4906 111.539C47.4906 113.081 46.3955 114.176 43.8931 114.176H40.4253V104.796H43.5713ZM42.7356 106.717V108.384H43.6338C44.2774 108.384 44.6616 108.062 44.6616 107.548C44.6616 107.034 44.2774 106.717 43.6338 106.717H42.7356ZM42.7356 112.241H43.8883C44.6568 112.241 45.1083 111.919 45.1083 111.28C45.1083 110.641 44.6568 110.319 43.8883 110.319H42.7356V112.241Z" fill="#003D73"/>
<path d="M49.7383 104.796H56.2225V106.852H52.0486V108.461H55.2618V110.512H52.0486V112.121H56.2225V114.176H49.7383V104.796Z" fill="#003D73"/>
<path d="M61.0398 114.176H58.7295V104.796H61.8131C64.253 104.796 65.6556 106.208 65.6556 108.201C65.6556 110.195 64.2434 111.607 61.8131 111.607H61.0398V114.176ZM61.0398 109.551H61.8131C61.9999 109.567 62.1879 109.544 62.3653 109.483C62.5427 109.422 62.7056 109.325 62.8436 109.199C62.9817 109.072 63.0918 108.918 63.1672 108.746C63.2426 108.574 63.2815 108.389 63.2815 108.201C63.2815 108.014 63.2426 107.828 63.1672 107.657C63.0918 107.485 62.9817 107.331 62.8436 107.204C62.7056 107.077 62.5427 106.98 62.3653 106.92C62.1879 106.859 61.9999 106.836 61.8131 106.852H61.0398V109.551Z" fill="#003D73"/>
<path d="M76.2644 114.176H73.9493V110.488H70.3518V114.176H68.0415V104.796H70.3518V108.432H73.9493V104.796H76.2644V114.176Z" fill="#003D73"/>
<path d="M81.0814 112.375L80.3081 114.176H77.8682L82.1909 104.796H84.0546L88.3773 114.176H85.9374L85.1641 112.375H81.0814ZM83.0699 107.879L81.9172 110.449H84.2899L83.1372 107.879H83.0699Z" fill="#003D73"/>
<path d="M91.3571 110.771V110.709C90.8701 110.463 90.4616 110.085 90.1781 109.619C89.8946 109.153 89.7472 108.617 89.7528 108.072C89.7528 106.213 91.1649 104.796 93.5953 104.796H96.6789V114.176H94.3686V111.347H93.5329L91.6693 114.176H89.0996L91.3571 110.771ZM94.3782 106.852H93.6049C92.6443 106.852 92.1304 107.303 92.1304 108.139C92.1304 108.975 92.6443 109.421 93.6049 109.421H94.3782V106.852Z" fill="#003D73"/>
</svg>
