<?xml version="1.0" encoding="UTF-8"?><!DOCTYPE svg PUBLIC "-//W3C//DTD SVG 1.1//EN" "http://www.w3.org/Graphics/SVG/1.1/DTD/svg11.dtd"><svg xmlns="http://www.w3.org/2000/svg" xmlns:xlink="http://www.w3.org/1999/xlink"><defs><clipPath id="id2a"><path transform="translate(0 .457)" d="M0 0h24v24H0z"/></clipPath><clipPath id="id5a"><path transform="translate(0 .457)" d="M0 0h24v24H0z"/></clipPath><clipPath id="id10a"><path transform="translate(0 .457)" d="M0 0h24v24H0z"/></clipPath><clipPath id="id8a"><path transform="translate(0 .457)" d="M0 0h24v24H0z"/></clipPath></defs><symbol id="close"><path d="M.707 0l22.627 22.627-.707.707L0 .707z"/><path d="M0 22.999L22.627.372l.708.707L.707 23.706z"/></symbol><symbol id="d-arrow"><path d="M10 7.2l-.7-.672-3.8 3.6V0h-1v10.128l-3.8-3.6L0 7.2 5 12l5-4.8z"/></symbol><symbol id="download" viewBox="0 0 24 24"><path d="M12 17a.5.5 0 01-.5-.5V.5a.5.5 0 011 0v16a.5.5 0 01-.5.5z"/><path d="M12 17a.502.502 0 01-.354-.146l-4-4a.5.5 0 01.707-.707L12 15.793l3.646-3.646a.5.5 0 01.707.707l-4 4A.498.498 0 0112 17z"/><path d="M21.5 24h-19A2.503 2.503 0 010 21.5v-5a.5.5 0 011 0v5c0 .827.673 1.5 1.5 1.5h19c.827 0 1.5-.673 1.5-1.5v-5a.5.5 0 011 0v5c0 1.378-1.121 2.5-2.5 2.5z"/></symbol><symbol id="facebook"><g clip-path="url(#id2a)"><path d="M20.486 3.972A11.921 11.921 0 0012.001.457a11.986 11.986 0 00-8.485 3.515A11.921 11.921 0 000 12.457c0 2.499.76 4.894 2.2 6.926a11.973 11.973 0 005.626 4.328.38.38 0 00.51-.366v-6.846a.378.378 0 00-.378-.379H4.8v-2.779h3.158c.21 0 .379-.17.379-.379v-.505c0-3.297 3.128-6.19 6.695-6.19h1.642v2.78h-1.643c-1.069 0-2.041.307-2.738.866-.77.618-1.177 1.498-1.177 2.544v.505c0 .21.17.38.379.38h1.494a.379.379 0 000-.759h-1.115v-.126c0-1.958 1.7-2.653 3.158-2.653h2.02c.21 0 .38-.17.38-.379V5.89a.38.38 0 00-.38-.38h-2.02c-1.853 0-3.73.738-5.152 2.022-1.484 1.342-2.301 3.091-2.301 4.926v.126H4.422c-.21 0-.379.17-.379.38V16.5c0 .21.17.38.379.38H7.58v5.917C3.478 21.039.759 16.952.759 12.457.759 6.258 5.802 1.215 12 1.215c6.192 0 11.242 5.05 11.242 11.242 0 6.199-5.043 11.242-11.242 11.242h-.126v-6.82h5.179a.38.38 0 00.379-.38v-3.537a.38.38 0 00-.38-.379h-2.217a.379.379 0 000 .758h1.839v2.78h-5.18a.378.378 0 00-.378.378v7.567c0 .203.16.37.362.379a11.921 11.921 0 009.007-3.503A11.987 11.987 0 0024 12.457c0-3.205-1.248-6.219-3.515-8.485z"/></g></symbol><symbol id="file"><path d="M33.875 6.525L27.35 0H7.937v24.077c-4.176.243-7.5 3.718-7.5 7.954C.438 36.425 4.013 40 8.407 40a7.974 7.974 0 006.943-4.063h18.525V6.526zM27.625 1.6l4.65 4.65h-4.65V1.6zM8.406 39.063a7.04 7.04 0 01-7.031-7.032A7.04 7.04 0 018.406 25a7.04 7.04 0 017.031 7.031 7.04 7.04 0 01-7.03 7.032zM15.801 35c.37-.918.574-1.92.574-2.969 0-4.236-3.323-7.71-7.5-7.954V.937h17.813v6.25h6.25V35H15.8z"/><path d="M12.156 5h7.5v.938h-7.5V5zm0 2.5h5v.938h-5V7.5zm0 3.75h17.5v.938h-17.5v-.938zm0 2.5h17.5v.938h-17.5v-.938zm0 5h17.5v.938h-17.5v-.938zm0 2.5h12.5v.938h-12.5v-.938zm0-5h17.5v.938h-17.5v-.938zM23.406 25h6.25v.938h-6.25V25zm-12.168 6.113l-.663-.663-1.7 1.7v-5.12h-.937v5.119l-1.7-1.7-.663.663 2.831 2.831 2.832-2.831z"/><path d="M11.063 35.313H5.75V33.28h-.938v2.969H12V33.28h-.938v2.032z"/></symbol><symbol id="Gentoo-logo"><path d="M.066 496.393c.068-26.26 22.392-62.924 54.112-96.233 21.198-22.26 42.727-41.799 89.657-81.813-32.462-17.813-82.95-39.304-108.284-67.45-9.373-10.413-26.363-34.007-23.068-65.53C19.2 121.123 98.499 23.623 211.214 3.009c37.504-6.858 80.564-1.907 116.003 14.025 111.18 49.985 247.148 174.162 263.877 234.795 5.888 21.342 4.757 55.36-5.395 74.32-12.581 23.498-56.135 71.225-115.725 120.473-93.499 77.274-224.52 160.249-322.352 174.21-31.611 4.512-63.908-.193-86.573-12.982-35.46-20.01-47.232-46.723-51.37-54.73C-1.324 531.827.042 504.853.066 496.394zm263.142-295.04c1.208-14.89 59.594-.066 55.905 11.725-3.892 12.44-57.29 5.355-55.905-11.725z" fill-rule="evenodd"/><g fill-rule="evenodd"><path d="M175.434 293.744c-30.724 25.941-51.152 43.432-76.763 66.84-61.676 56.37-103.582 99.279-81.977 157.932 24.923 67.661 79.556 64.23 143.622 51.654 165.136-32.57 436.592-241.26 422.756-318.342-11.196-62.37-162.855-186.374-252.649-230.5C302.371 7.543 270.041.413 237.614 1.938 114.144 7.768 17.72 120.182 22.645 181.089c4.792 59.256 154.556 110.888 152.789 112.655zM156.9 86.881c-37.153 41.336-13.398 121.311 48.215 164.903 72.096 51.007 188.845 60.242 212.078 20.905 43.335-73.373-3.98-150.955-74.61-185.563-69.796-34.199-162.523-26.012-185.683-.245z"/><path d="M283.605 250.049c52.159 7.25 97.117-13.638 104.147-65.143 5.355-39.234-54.69-82.1-90.79-91.987-30.146-8.256-95.595 2.36-100.008 59.378-4.586 59.272 56.237 93.525 86.65 97.753zm-25.543-98.58c-34.279 53.103 49.77 69.43 62.638 59.745 55.477-41.752-47.536-83.142-62.638-59.745z"/></g><path d="M227.662 16.049c-60.634 6.39-72.247 14.194-127.176 55.753-18.41 13.928-52.294 47.819-60.975 88.025-3.307 15.313.602 28.533 11.63 37.804 35.313 29.688 94.416 53.774 142.904 77.057 14.203 6.82 4.8 19.186-18.104 39.013C118.15 363.733 40.014 424.635 34.56 471.043c-2.57 21.868 4.916 51.583 31.46 66.79 31.006 17.764 95.371 6.17 138.35-9.835 62.806-23.388 145.308-75.004 210.807-125.741 68.11-52.76 131.437-119.773 134.57-130.703 3.847-13.422 3.463-25.818-3.96-40.07-11.658-22.383-27.244-39.014-43.979-57.63-44.902-47.338-92.412-88.934-149.254-120.81-41.048-23.017-77.165-42.025-124.892-36.995zm89.067 106.13c43.805 21.178 88.79 76.806-.39 108.824-24.25 8.707-101.159-21.382-98.804-62.444 3.433-60.655 45.707-72.24 99.194-46.38z" fill-rule="evenodd"/></symbol><symbol id="houzz"><path d="M9.576 5H6.917a.409.409 0 00-.408.409v12.255c0 .225.183.408.408.408h4.254a.409.409 0 00.409-.408v-3.322h1.841v3.322c0 .225.183.408.409.408h4.254a.409.409 0 00.408-.408v-6.927a.409.409 0 00-.286-.39L9.984 7.772V5.41A.409.409 0 009.576 5zm8.099 6.037v6.218h-3.437v-3.321a.409.409 0 00-.409-.409h-2.658a.409.409 0 00-.408.409v3.321H7.326V5.817h1.841v2.256a.41.41 0 00.287.39l8.22 2.574z"/><path d="M20.485 3.515A11.921 11.921 0 0012 0a11.921 11.921 0 00-8.485 3.515A11.921 11.921 0 000 12c0 3.205 1.248 6.219 3.515 8.485A11.921 11.921 0 0012 24c3.205 0 6.219-1.248 8.485-3.515A11.922 11.922 0 0024 12c0-3.205-1.248-6.219-3.515-8.485zM12 23.242C5.801 23.242.758 18.2.758 12 .758 5.801 5.8.758 12 .758 18.199.758 23.242 5.8 23.242 12c0 6.199-5.043 11.242-11.242 11.242z"/></symbol><symbol id="inmyroom"><path d="M20.485 3.515A11.921 11.921 0 0012 0a11.921 11.921 0 00-8.485 3.515A11.921 11.921 0 000 12c0 3.205 1.248 6.219 3.515 8.485A11.921 11.921 0 0012 24c3.205 0 6.219-1.248 8.485-3.515A11.922 11.922 0 0024 12c0-3.205-1.248-6.219-3.515-8.485zM12 23.242C5.801 23.242.758 18.2.758 12 .758 5.801 5.8.758 12 .758 18.199.758 23.242 5.8 23.242 12c0 6.199-5.043 11.242-11.242 11.242z"/><path d="M12.039 18.54a6.138 6.138 0 01-5.23-2.38 8 8 0 01-1.4-3.7 15.11 15.11 0 01.19-4.56 8.38 8.38 0 01.45-1.53c.102-.24.217-.47.39-.67l.27.07c.114.03.225.074.33.13.348.16.683.351 1 .57a9.999 9.999 0 012 1.73v.06l.28-.09.41-.13a4.84 4.84 0 012.59 0l.4.13.22.09.05-.05a10.45 10.45 0 012.1-1.77c.286-.185.89-.5.89-.5s.38-.18.61-.24l.17.27c.076.127.143.261.2.4.197.493.345 1.006.44 1.53.299 1.5.363 3.038.19 4.56-.42 3.506-2.828 6.08-6.55 6.08zm5.8-6.12a14.525 14.525 0 00-.18-4.31 8.436 8.436 0 00-.43-1.41c-.2.11-.44.24-.71.41a9.74 9.74 0 00-1.95 1.64l-.44.48c-.696-.314-1.348-.575-2.13-.59-.803.014-1.462.283-2.17.61l-.42-.55a8.94 8.94 0 00-1.82-1.57 7.4 7.4 0 00-.8-.43 7.05 7.05 0 00-.4 1.38 14.19 14.19 0 00-.18 4.29 7.18 7.18 0 001.25 3.33 5.341 5.341 0 004.54 2c3.376 0 5.486-2.032 5.84-5.28z"/></symbol><symbol id="instagram"><g clip-path="url(#id5a)"><path d="M20.485 3.972A11.921 11.921 0 0012 .457a11.921 11.921 0 00-8.485 3.515A11.921 11.921 0 000 12.457c0 3.205 1.248 6.219 3.515 8.485A11.921 11.921 0 0012 24.457c3.205 0 6.219-1.248 8.485-3.515A11.921 11.921 0 0024 12.457c0-3.205-1.248-6.219-3.515-8.485zM12 23.699C5.801 23.7.758 18.656.758 12.457.758 6.258 5.8 1.215 12 1.215c6.199 0 11.242 5.043 11.242 11.242 0 6.199-5.043 11.242-11.242 11.242z"/><path d="M16.305 5.004h-8.61A3.15 3.15 0 004.546 8.15v8.61a3.151 3.151 0 003.147 3.148h8.61a3.15 3.15 0 003.148-3.147v-8.61a3.15 3.15 0 00-3.147-3.148zm2.39 11.758a2.392 2.392 0 01-2.39 2.39h-8.61a2.392 2.392 0 01-2.39-2.39v-8.61a2.392 2.392 0 012.39-2.39h8.61a2.392 2.392 0 012.39 2.39v8.61z"/><path d="M15.91 12.233a3.926 3.926 0 00-3.73-3.688 3.92 3.92 0 00-4.092 4.094 3.926 3.926 0 003.69 3.727 3.893 3.893 0 002.288-.585.375.375 0 00.068-.584l-.006-.006a.377.377 0 00-.467-.05 3.137 3.137 0 01-1.695.473 3.171 3.171 0 01-3.123-3.247 3.162 3.162 0 013.36-3.062 3.166 3.166 0 012.944 2.886 3.141 3.141 0 01-.357 1.742.377.377 0 00.064.445l.006.006a.374.374 0 00.594-.085c.327-.61.497-1.317.455-2.066zm.132-3.313a1.01 1.01 0 100-2.022 1.01 1.01 0 000 2.021z"/></g></symbol><symbol id="play"><path d="M11.715 21.8c5.906 0 10.734-4.84 10.734-10.745C22.45 5.148 17.621.32 11.715.32S.98 5.148.98 11.055C.98 16.96 5.81 21.8 11.715 21.8zm0-.644c-5.567 0-10.102-4.535-10.102-10.101 0-5.567 4.535-10.09 10.102-10.09 5.566 0 10.101 4.523 10.101 10.09 0 5.566-4.535 10.101-10.101 10.101zm-2.18-5.8l6.305-3.833c.375-.222.375-.691 0-.925L9.535 6.73c-.363-.21-.797-.023-.797.352v7.922c0 .375.434.562.797.351z"/></symbol><symbol id="r-arrow"><path d="M7.2 0l-.672.7 3.6 3.8H0v1h10.128l-3.6 3.8.672.7L12 5 7.2 0z"/></symbol><symbol id="search"><path d="M7.13 12.488c1.433 0 2.76-.492 3.814-1.31l4.377 4.395a.684.684 0 00.484.194.67.67 0 00.685-.686.663.663 0 00-.193-.483l-4.368-4.377a6.203 6.203 0 001.423-3.955c0-3.42-2.803-6.223-6.222-6.223C3.71.043.907 2.847.907 6.266c0 3.427 2.804 6.222 6.223 6.222zm0-.861c-2.936 0-5.353-2.417-5.353-5.361C1.777 3.33 4.194.913 7.13.913c2.935 0 5.352 2.417 5.352 5.353 0 2.944-2.417 5.361-5.352 5.361z"/></symbol><symbol id="telegram"><g clip-path="url(#id10a)"><path d="M20.485 3.972A11.921 11.921 0 0012 .457a11.921 11.921 0 00-8.485 3.515A11.921 11.921 0 000 12.457c0 3.205 1.248 6.219 3.515 8.485A11.921 11.921 0 0012 24.457c3.205 0 6.219-1.248 8.485-3.515A11.921 11.921 0 0024 12.457c0-3.205-1.248-6.219-3.515-8.485zM12 23.699C5.801 23.7.758 18.656.758 12.457.758 6.258 5.8 1.215 12 1.215c6.199 0 11.242 5.043 11.242 11.242 0 6.199-5.043 11.242-11.242 11.242z"/><path d="M18.797 5.08a.379.379 0 00-.402-.034l-14.653 7.58a.38.38 0 00.005.675l3.832 1.916v3.797c0 .1.034.198.102.27a.38.38 0 00.461.072l4.385-2.436 3.356 1.438c.072.031.15.044.227.03a.38.38 0 00.304-.3l.85-4.245a.379.379 0 00-.744-.149l-.758 3.788-3.107-1.332a.379.379 0 00-.333.017l-3.985 2.214v-3.398a.379.379 0 00-.21-.34l-3.375-1.687 13.29-6.874-1.153 5.766a.38.38 0 00.743.149l1.308-6.54a.379.379 0 00-.143-.377z"/><path d="M16.34 8.18a.379.379 0 00-.497-.089l-6.568 4.043a.379.379 0 00-.18.322v4.042a.379.379 0 00.718.17L11.3 13.69l5.009-5.009a.38.38 0 00.03-.503zm-5.619 5.019a.381.381 0 00-.07.098l-.798 1.596v-2.225l3.639-2.24-2.77 2.77z"/></g></symbol><symbol id="twitter"><g clip-path="url(#id8a)"><path d="M20.485 3.972A11.921 11.921 0 0012 .457a11.921 11.921 0 00-8.485 3.515A11.921 11.921 0 000 12.457c0 3.205 1.248 6.219 3.515 8.485A11.921 11.921 0 0012 24.457c3.205 0 6.219-1.248 8.485-3.515A11.921 11.921 0 0024 12.457c0-3.205-1.248-6.219-3.515-8.485zM12 23.699C5.801 23.7.758 18.656.758 12.457.758 6.258 5.8 1.215 12 1.215c6.199 0 11.242 5.043 11.242 11.242 0 6.199-5.043 11.242-11.242 11.242z"/><path d="M20.453 8.068a.389.389 0 00-.415-.052 5.89 5.89 0 01-.6.24c.201-.276.363-.582.477-.911a.393.393 0 00-.074-.395.38.38 0 00-.467-.073 5.455 5.455 0 01-1.778.638 3.762 3.762 0 00-2.561-.995 3.8 3.8 0 00-3.78 3.471c-.41-.064-1.212-.292-1.404-.355a8.508 8.508 0 01-3.613-2.405.38.38 0 00-.63.074 3.454 3.454 0 00-.366 1.555c0 .755.237 1.466.662 2.05a.38.38 0 00-.45.369 3.273 3.273 0 001.222 2.675.38.38 0 00-.146.433A3.359 3.359 0 008.7 16.58a5.929 5.929 0 01-3.373.857.38.38 0 00-.392.316.39.39 0 00.191.395 9.082 9.082 0 004.612 1.256 9.024 9.024 0 005.326-1.722.382.382 0 00.045-.58.384.384 0 00-.498-.037 8.284 8.284 0 01-4.873 1.58 8.342 8.342 0 01-2.965-.543 6.682 6.682 0 003.113-1.44.39.39 0 00.138-.37.379.379 0 00-.361-.307 2.602 2.602 0 01-2.189-1.316c.211-.01.422-.039.63-.086a.392.392 0 00.307-.324.379.379 0 00-.285-.417 2.514 2.514 0 01-1.881-2.027c.29.068.591.098.893.088a.38.38 0 00.365-.335.39.39 0 00-.191-.374A2.712 2.712 0 016 8.861c0-.236.03-.465.087-.688.994.982 2.2 1.73 3.52 2.18.012.005 1.317.411 1.811.413.032 0 .186.008.187.008A.384.384 0 0012 10.38l-.001-.067a3.04 3.04 0 013.036-3.036c.82 0 1.588.323 2.163.907a.373.373 0 00.319.11 6.242 6.242 0 001.127-.264 2.714 2.714 0 01-.68.54.38.38 0 00-.165.488l.005.012a.38.38 0 00.382.222c.313-.03.622-.082.926-.155a6.116 6.116 0 01-.884.753.377.377 0 00-.16.321v.024c.002.026.003.052.003.079v.034a8.297 8.297 0 01-2.14 5.53.383.383 0 00.572.508 9.025 9.025 0 002.325-5.995 6.829 6.829 0 001.699-1.832.379.379 0 00-.074-.49z"/></g></symbol></svg>